<svg width="80" height="33" viewBox="0 0 80 33" fill="none" xmlns="http://www.w3.org/2000/svg">
<rect x="1.08691" y="0.365845" width="78.8545" height="32" fill="#244D4D"/>
<path d="M16.2934 20.8658V12.4658H19.4614C20.3334 12.4658 20.9934 12.6698 21.4414 13.0778C21.8894 13.4858 22.1134 13.9978 22.1134 14.6138C22.1134 15.1498 21.9694 15.5778 21.6814 15.8978C21.3934 16.2098 21.0454 16.4218 20.6374 16.5338C20.9574 16.5978 21.2414 16.7258 21.4894 16.9178C21.7454 17.1098 21.9454 17.3498 22.0894 17.6378C22.2334 17.9258 22.3054 18.2378 22.3054 18.5738C22.3054 19.0058 22.1974 19.3978 21.9814 19.7498C21.7734 20.0938 21.4654 20.3658 21.0574 20.5658C20.6494 20.7658 20.1494 20.8658 19.5574 20.8658H16.2934ZM17.5654 16.0658H19.3054C19.7934 16.0658 20.1654 15.9538 20.4214 15.7298C20.6774 15.4978 20.8054 15.1818 20.8054 14.7818C20.8054 14.3898 20.6774 14.0778 20.4214 13.8458C20.1734 13.6138 19.7934 13.4978 19.2814 13.4978H17.5654V16.0658ZM17.5654 19.8218H19.3894C19.9014 19.8218 20.2974 19.7018 20.5774 19.4618C20.8654 19.2218 21.0094 18.8858 21.0094 18.4538C21.0094 18.0218 20.8614 17.6818 20.5654 17.4338C20.2694 17.1778 19.8694 17.0498 19.3654 17.0498H17.5654V19.8218ZM25.8477 21.0098C25.1277 21.0098 24.5597 20.7858 24.1437 20.3378C23.7357 19.8898 23.5317 19.2218 23.5317 18.3338V14.9138H24.8037V18.2018C24.8037 19.3538 25.2757 19.9298 26.2197 19.9298C26.6917 19.9298 27.0797 19.7618 27.3837 19.4258C27.6877 19.0898 27.8397 18.6098 27.8397 17.9858V14.9138H29.1117V20.8658H27.9837L27.8877 19.8218C27.7037 20.1898 27.4317 20.4818 27.0717 20.6978C26.7197 20.9058 26.3117 21.0098 25.8477 21.0098ZM31.4258 23.5058L32.8538 20.3738H32.5058L30.1538 14.9138H31.5338L33.3578 19.3178L35.2658 14.9138H36.6098L32.7698 23.5058H31.4258ZM40.727 20.8658V12.4658H41.999L46.211 18.7898V12.4658H47.483V20.8658H46.211L41.999 14.5418V20.8658H40.727ZM51.9239 21.0098C51.3559 21.0098 50.8439 20.8818 50.3879 20.6258C49.9399 20.3618 49.5839 19.9978 49.3199 19.5338C49.0559 19.0618 48.9239 18.5138 48.9239 17.8898C48.9239 17.2658 49.0559 16.7218 49.3199 16.2578C49.5919 15.7858 49.9559 15.4218 50.4119 15.1658C50.8679 14.9018 51.3759 14.7698 51.9359 14.7698C52.5039 14.7698 53.0119 14.9018 53.4599 15.1658C53.9159 15.4218 54.2759 15.7858 54.5399 16.2578C54.8119 16.7218 54.9479 17.2658 54.9479 17.8898C54.9479 18.5138 54.8119 19.0618 54.5399 19.5338C54.2759 19.9978 53.9159 20.3618 53.4599 20.6258C53.0039 20.8818 52.4919 21.0098 51.9239 21.0098ZM51.9239 19.9178C52.2279 19.9178 52.5079 19.8418 52.7639 19.6898C53.0279 19.5378 53.2399 19.3138 53.3999 19.0178C53.5599 18.7138 53.6399 18.3378 53.6399 17.8898C53.6399 17.4418 53.5599 17.0698 53.3999 16.7738C53.2479 16.4698 53.0399 16.2418 52.7759 16.0898C52.5199 15.9378 52.2399 15.8618 51.9359 15.8618C51.6319 15.8618 51.3479 15.9378 51.0839 16.0898C50.8279 16.2418 50.6199 16.4698 50.4599 16.7738C50.2999 17.0698 50.2199 17.4418 50.2199 17.8898C50.2199 18.3378 50.2999 18.7138 50.4599 19.0178C50.6199 19.3138 50.8279 19.5378 51.0839 19.6898C51.3399 19.8418 51.6199 19.9178 51.9239 19.9178ZM57.2889 20.8658L55.5369 14.9138H56.8089L57.9609 19.4018L59.2569 14.9138H60.6729L61.9689 19.4018L63.1209 14.9138H64.3929L62.6409 20.8658H61.3329L59.9649 16.1858L58.5969 20.8658H57.2889Z" fill="white"/>
</svg>
