<svg width="89" height="16" viewBox="0 0 89 16" fill="none" xmlns="http://www.w3.org/2000/svg">
<path d="M0.10182 11.7522V0.552197H1.79782V10.4082H6.88582V11.7522H0.10182ZM9.6072 2.3122C9.2872 2.3122 9.02053 2.2162 8.8072 2.0242C8.60453 1.82153 8.5032 1.57086 8.5032 1.2722C8.5032 0.97353 8.60453 0.728197 8.8072 0.536197C9.02053 0.33353 9.2872 0.232197 9.6072 0.232197C9.9272 0.232197 10.1885 0.33353 10.3912 0.536197C10.6045 0.728197 10.7112 0.97353 10.7112 1.2722C10.7112 1.57086 10.6045 1.82153 10.3912 2.0242C10.1885 2.2162 9.9272 2.3122 9.6072 2.3122ZM8.7592 11.7522V3.8162H10.4552V11.7522H8.7592ZM14.9181 11.7522L11.9421 3.8162H13.7181L15.9261 10.1362L18.1341 3.8162H19.8941L16.9341 11.7522H14.9181ZM22.2478 2.3122C21.9278 2.3122 21.6612 2.2162 21.4478 2.0242C21.2452 1.82153 21.1438 1.57086 21.1438 1.2722C21.1438 0.97353 21.2452 0.728197 21.4478 0.536197C21.6612 0.33353 21.9278 0.232197 22.2478 0.232197C22.5678 0.232197 22.8292 0.33353 23.0318 0.536197C23.2452 0.728197 23.3518 0.97353 23.3518 1.2722C23.3518 1.57086 23.2452 1.82153 23.0318 2.0242C22.8292 2.2162 22.5678 2.3122 22.2478 2.3122ZM21.3998 11.7522V3.8162H23.0958V11.7522H21.3998ZM25.3347 11.7522V3.8162H26.8387L26.9667 5.2082C27.212 4.71753 27.5694 4.33353 28.0387 4.0562C28.5187 3.7682 29.068 3.6242 29.6867 3.6242C30.6467 3.6242 31.3987 3.92286 31.9427 4.5202C32.4974 5.11753 32.7747 6.0082 32.7747 7.1922V11.7522H31.0947V7.3682C31.0947 5.8322 30.4654 5.0642 29.2067 5.0642C28.5774 5.0642 28.0547 5.2882 27.6387 5.7362C27.2334 6.1842 27.0307 6.8242 27.0307 7.6562V11.7522H25.3347ZM38.0202 9.3202C37.6042 9.3202 37.2202 9.2722 36.8682 9.1762L36.1802 9.8482C36.2975 9.92286 36.4415 9.98686 36.6122 10.0402C36.7829 10.0935 37.0229 10.1415 37.3322 10.1842C37.6415 10.2269 38.0629 10.2695 38.5962 10.3122C39.6522 10.4082 40.4149 10.6642 40.8842 11.0802C41.3535 11.4855 41.5882 12.0295 41.5882 12.7122C41.5882 13.1815 41.4602 13.6242 41.2042 14.0402C40.9589 14.4669 40.5695 14.8082 40.0362 15.0642C39.5135 15.3309 38.8415 15.4642 38.0202 15.4642C36.9109 15.4642 36.0095 15.2509 35.3162 14.8242C34.6335 14.4082 34.2922 13.7735 34.2922 12.9202C34.2922 12.5895 34.3775 12.2589 34.5482 11.9282C34.7295 11.6082 35.0122 11.3042 35.3962 11.0162C35.1722 10.9202 34.9749 10.8189 34.8042 10.7122C34.6442 10.5949 34.5002 10.4775 34.3722 10.3602V9.9762L35.7482 8.5682C35.1295 8.03486 34.8202 7.3362 34.8202 6.4722C34.8202 5.94953 34.9429 5.47486 35.1882 5.0482C35.4442 4.61086 35.8122 4.2642 36.2922 4.0082C36.7722 3.7522 37.3482 3.6242 38.0202 3.6242C38.4682 3.6242 38.8842 3.6882 39.2682 3.8162H42.2282V4.9362L40.8202 5.0162C41.0762 5.45353 41.2042 5.93886 41.2042 6.4722C41.2042 7.00553 41.0762 7.48553 40.8202 7.9122C40.5749 8.33886 40.2122 8.6802 39.7322 8.9362C39.2629 9.1922 38.6922 9.3202 38.0202 9.3202ZM38.0202 7.9922C38.5109 7.9922 38.9055 7.8642 39.2042 7.6082C39.5135 7.34153 39.6682 6.9682 39.6682 6.4882C39.6682 5.99753 39.5135 5.6242 39.2042 5.3682C38.9055 5.1122 38.5109 4.9842 38.0202 4.9842C37.5189 4.9842 37.1135 5.1122 36.8042 5.3682C36.5055 5.6242 36.3562 5.99753 36.3562 6.4882C36.3562 6.9682 36.5055 7.34153 36.8042 7.6082C37.1135 7.8642 37.5189 7.9922 38.0202 7.9922ZM35.8922 12.7602C35.8922 13.2189 36.0949 13.5602 36.5002 13.7842C36.9055 14.0189 37.4122 14.1362 38.0202 14.1362C38.6069 14.1362 39.0815 14.0082 39.4442 13.7522C39.8069 13.5069 39.9882 13.1762 39.9882 12.7602C39.9882 12.4509 39.8655 12.1842 39.6202 11.9602C39.3749 11.7469 38.9109 11.6135 38.2282 11.5602C37.7162 11.5282 37.2629 11.4802 36.8682 11.4162C36.4949 11.6189 36.2389 11.8375 36.1002 12.0722C35.9615 12.3069 35.8922 12.5362 35.8922 12.7602ZM47.8362 11.7522V0.552197H51.6922C52.5775 0.552197 53.3029 0.70153 53.8682 1.0002C54.4442 1.29886 54.8709 1.7042 55.1482 2.2162C55.4255 2.71753 55.5642 3.27753 55.5642 3.8962C55.5642 4.58953 55.3775 5.21886 55.0042 5.7842C54.6415 6.34953 54.0709 6.75486 53.2922 7.0002L55.6762 11.7522H53.7082L51.5322 7.2402H49.5322V11.7522H47.8362ZM49.5322 5.9602H51.5962C52.3642 5.9602 52.9242 5.77353 53.2762 5.4002C53.6389 5.02686 53.8202 4.54153 53.8202 3.9442C53.8202 3.34686 53.6442 2.8722 53.2922 2.5202C52.9402 2.15753 52.3695 1.9762 51.5802 1.9762H49.5322V5.9602ZM60.7342 11.9442C59.9769 11.9442 59.2942 11.7735 58.6862 11.4322C58.0889 11.0802 57.6142 10.5949 57.2622 9.9762C56.9102 9.34686 56.7342 8.6162 56.7342 7.7842C56.7342 6.9522 56.9102 6.22686 57.2622 5.6082C57.6249 4.97886 58.1102 4.49353 58.7182 4.1522C59.3262 3.8002 60.0035 3.6242 60.7502 3.6242C61.5075 3.6242 62.1849 3.8002 62.7822 4.1522C63.3902 4.49353 63.8702 4.97886 64.2222 5.6082C64.5849 6.22686 64.7662 6.9522 64.7662 7.7842C64.7662 8.6162 64.5849 9.34686 64.2222 9.9762C63.8702 10.5949 63.3902 11.0802 62.7822 11.4322C62.1742 11.7735 61.4915 11.9442 60.7342 11.9442ZM60.7342 10.4882C61.1395 10.4882 61.5129 10.3869 61.8542 10.1842C62.2062 9.98153 62.4889 9.68286 62.7022 9.2882C62.9155 8.88286 63.0222 8.38153 63.0222 7.7842C63.0222 7.18686 62.9155 6.69086 62.7022 6.2962C62.4995 5.89086 62.2222 5.58686 61.8702 5.3842C61.5289 5.18153 61.1555 5.0802 60.7502 5.0802C60.3449 5.0802 59.9662 5.18153 59.6142 5.3842C59.2729 5.58686 58.9955 5.89086 58.7822 6.2962C58.5689 6.69086 58.4622 7.18686 58.4622 7.7842C58.4622 8.38153 58.5689 8.88286 58.7822 9.2882C58.9955 9.68286 59.2729 9.98153 59.6142 10.1842C59.9555 10.3869 60.3289 10.4882 60.7342 10.4882ZM70.3123 11.9442C69.555 11.9442 68.8723 11.7735 68.2643 11.4322C67.667 11.0802 67.1923 10.5949 66.8403 9.9762C66.4883 9.34686 66.3123 8.6162 66.3123 7.7842C66.3123 6.9522 66.4883 6.22686 66.8403 5.6082C67.203 4.97886 67.6883 4.49353 68.2963 4.1522C68.9043 3.8002 69.5817 3.6242 70.3283 3.6242C71.0857 3.6242 71.763 3.8002 72.3603 4.1522C72.9683 4.49353 73.4483 4.97886 73.8003 5.6082C74.163 6.22686 74.3443 6.9522 74.3443 7.7842C74.3443 8.6162 74.163 9.34686 73.8003 9.9762C73.4483 10.5949 72.9683 11.0802 72.3603 11.4322C71.7523 11.7735 71.0697 11.9442 70.3123 11.9442ZM70.3123 10.4882C70.7177 10.4882 71.091 10.3869 71.4323 10.1842C71.7843 9.98153 72.067 9.68286 72.2803 9.2882C72.4937 8.88286 72.6003 8.38153 72.6003 7.7842C72.6003 7.18686 72.4937 6.69086 72.2803 6.2962C72.0777 5.89086 71.8003 5.58686 71.4483 5.3842C71.107 5.18153 70.7337 5.0802 70.3283 5.0802C69.923 5.0802 69.5443 5.18153 69.1923 5.3842C68.851 5.58686 68.5737 5.89086 68.3603 6.2962C68.147 6.69086 68.0403 7.18686 68.0403 7.7842C68.0403 8.38153 68.147 8.88286 68.3603 9.2882C68.5737 9.68286 68.851 9.98153 69.1923 10.1842C69.5337 10.3869 69.907 10.4882 70.3123 10.4882ZM76.1784 11.7522V3.8162H77.6824L77.8264 4.9362C78.0824 4.53086 78.4184 4.21086 78.8344 3.9762C79.2611 3.74153 79.7518 3.6242 80.3064 3.6242C81.5651 3.6242 82.4398 4.1202 82.9304 5.1122C83.2184 4.65353 83.6024 4.29086 84.0824 4.0242C84.5731 3.75753 85.1011 3.6242 85.6664 3.6242C86.6584 3.6242 87.4371 3.92286 88.0024 4.5202C88.5678 5.11753 88.8504 6.0082 88.8504 7.1922V11.7522H87.1544V7.3682C87.1544 5.8322 86.5678 5.0642 85.3944 5.0642C84.7971 5.0642 84.3064 5.2882 83.9224 5.7362C83.5491 6.1842 83.3624 6.8242 83.3624 7.6562V11.7522H81.6664V7.3682C81.6664 5.8322 81.0744 5.0642 79.8904 5.0642C79.3038 5.0642 78.8184 5.2882 78.4344 5.7362C78.0611 6.1842 77.8744 6.8242 77.8744 7.6562V11.7522H76.1784Z" fill="#808080"/>
</svg>
